<svg width="108" height="16" viewBox="0 0 108 16" fill="none" xmlns="http://www.w3.org/2000/svg">
    <path d="M10.8587 16H0L1.35 5.58545L10.5065 0L18.4891 9.42546L18.5478 9.83273L10.5065 0.989091V2.03636L18.5478 10.24L18.6065 10.6473L10.5652 3.02545V4.18909L18.6652 11.0545L18.7239 11.4618L10.6239 5.17818V6.22545L18.8413 11.8691L18.9 12.2764L10.6826 7.27273V8.26182L18.9587 12.6836L19.0174 13.0909L10.7413 9.30909V10.3564L19.1348 13.5564L19.1935 13.9636L10.8 11.4036V12.5673L19.2522 14.4291L19.3109 14.8364L10.8 13.5564V14.6036L19.3696 15.1855L19.4283 15.7673L10.8587 16ZM61.6304 8.66909V11.0545C60.4565 11.6364 59.7522 12.2182 58.9304 12.2182C58.05 12.2182 57.2283 11.8691 57.2283 10.9382C57.2283 9.42545 58.6956 8.61091 61.6304 8.66909ZM55.1739 4.88727C56.3478 4.07273 58.1674 3.43273 59.4587 3.43273C61.2783 3.43273 61.6891 4.01455 61.6891 5.70182C56.5826 5.81818 52.8848 7.15636 52.8848 11.2873C52.8848 13.4982 54.2348 15.5927 57.9326 15.5927C59.987 15.5927 61.4543 15.0109 62.863 13.9055C63.8022 15.4764 65.0348 15.5927 65.7978 15.5927C66.3848 15.5927 66.9717 15.4764 66.9717 15.3018V12.0436C65.7978 12.16 65.7978 11.1709 65.7978 9.77454V5.29455C65.7978 3.60727 65.563 0 59.8696 0C58.8717 0 56.2304 0.116364 53.413 2.09455L55.1739 4.88727ZM23.3609 12.8C25.2391 14.72 26.9413 15.5927 29.5239 15.5927C33.2804 15.5927 37.5652 13.6145 37.5652 7.56364C37.5652 1.28 32.7522 0 29.6413 0C28.35 0 26.0022 0.465455 23.8304 2.26909L26.1196 4.77091C27.0587 3.72364 28.2326 3.25818 29.5239 3.25818C32.2239 3.25818 32.4587 5.41091 32.5174 6.45818L27.587 6.16727V9.54182L32.5174 9.25091C32.4587 10.1236 32.1065 12.3345 29.4652 12.3345C27.6457 12.3345 26.413 11.3455 25.65 10.4145L23.3609 12.8ZM42.2609 3.78182V16H46.3696V3.78182H50.4783V0.290909H38.7391V3.78182H42.2609ZM78.3 16H82.1739V8.84364C83.9348 8.72727 84.287 9.54182 85.2848 11.6945C86.1652 13.5564 87.0456 15.5927 89.6283 15.5927C90.0391 15.5927 90.3913 15.5345 90.9783 15.3018V12.0436C89.8043 11.9273 89.9217 11.4618 89.0413 10.0073C87.8087 7.85455 87.1043 7.33091 86.2826 7.21454C87.5739 6.86545 88.1609 6.05091 88.5717 5.46909C89.2174 4.53818 89.687 3.66545 90.6848 3.66545C90.8022 3.66545 90.3913 3.66545 90.9783 3.72364V0.290909C90.3913 0.0581818 90.2739 0 89.5696 0C87.2804 0 85.9891 1.51273 84.6391 3.60727C83.9348 4.71273 83.2891 5.64364 82.1152 5.52727V0.290909H78.0065V5.58545C76.8326 5.70182 76.4217 4.71273 75.7174 3.66545C74.3674 1.51273 73.1348 0.0581818 70.8456 0.0581818C70.1413 0.0581818 69.7891 0.174545 69.2022 0.349091V3.72364C69.2022 3.66545 69.613 3.66545 69.7304 3.66545C70.7283 3.66545 71.3739 4.53818 72.0196 5.46909C72.4304 6.05091 72.9587 6.86545 74.25 7.21454C73.4283 7.33091 72.313 7.91273 71.0804 10.0073C70.2 11.4618 70.3761 11.9855 68.6152 12.0436V15.3018C69.2022 15.5345 70.0239 15.5927 70.4348 15.5927C73.0174 15.5927 74.1326 13.5564 75.0717 11.6945C76.1283 9.54182 75.6587 8.72727 78.0065 8.84364V16H78.3ZM98.6087 8.08727V0.290909H94.5V16H98.6087V13.1491L103.891 7.68V16H108V0.290909H103.891V2.67636L98.6087 8.08727Z" fill="#A92225"/>
</svg>
